<?xml version="1.0" encoding="UTF-8"?>
<svg width="512" height="512" viewBox="0 0 512 512" xmlns="http://www.w3.org/2000/svg" role="img" aria-label="DeckBuilder icon">
  <title>DeckBuilder Icon</title>
  <rect width="100%" height="100%" fill="none"/>
  <!-- shadow -->
  <g transform="translate(32,40)">
    <rect x="48" y="120" width="320" height="208" rx="16" ry="16" fill="#0f172a" opacity="0.06"/>
    <rect x="24" y="96" width="320" height="208" rx="16" ry="16" fill="#0f172a" opacity="0.04"/>
    <!-- bottom card -->
    <rect x="0" y="72" width="320" height="208" rx="16" ry="16" fill="#0f172a" opacity="0.02"/>
    <!-- main cards (stacked) -->
    <rect x="28" y="52" width="264" height="176" rx="12" ry="12" fill="#ffffff" stroke="#0f172a" stroke-width="10" />
    <rect x="12" y="28" width="264" height="176" rx="12" ry="12" fill="#ffffff" stroke="#0f172a" stroke-width="10" transform="translate(40,10) rotate(-6 144 116)"/>
    <rect x="44" y="76" width="264" height="176" rx="12" ry="12" fill="#ffffff" stroke="#0f172a" stroke-width="10" transform="translate(-20,-10) rotate(6 176 148)"/>
    <!-- custom icon on top card: abstract pentagonal "deck" mark -->
    <g transform="translate(88,98)">
      <path d="M80 16 L112 64 L80 96 L48 64 Z" fill="#ff6b35" stroke="#ff6b35" stroke-width="2" opacity="1"/>
      <circle cx="80" cy="56" r="6" fill="#ffffff" />
      <!-- two sparkles -->
      <path d="M24 28 L28 34 L34 28 L28 22 Z" fill="#ff6b35" opacity="0.95"/>
      <path d="M136 16 L140 22 L146 16 L140 10 Z" fill="#ff6b35" opacity="0.95"/>
    </g>
  </g>
</svg>
